<svg width="35" height="35" viewBox="0 0 35 35" fill="none" xmlns="http://www.w3.org/2000/svg">
<rect width="35" height="35" rx="7" fill="#DD2A7B"/>
<path d="M23.3406 10.3469C23.081 10.3469 22.8273 10.4239 22.6114 10.5681C22.3956 10.7123 22.2274 10.9173 22.128 11.1571C22.0287 11.3969 22.0027 11.6608 22.0533 11.9154C22.104 12.17 22.229 12.4039 22.4125 12.5875C22.5961 12.771 22.83 12.896 23.0846 12.9467C23.3392 12.9973 23.6031 12.9713 23.8429 12.872C24.0827 12.7726 24.2877 12.6044 24.4319 12.3886C24.5761 12.1727 24.6531 11.919 24.6531 11.6594C24.6531 11.3113 24.5148 10.9774 24.2687 10.7313C24.0226 10.4852 23.6887 10.3469 23.3406 10.3469ZM28.3719 12.9938C28.3506 12.0863 28.1806 11.1884 27.8687 10.3359C27.5906 9.60655 27.1578 8.94609 26.6 8.4C26.0584 7.83937 25.3964 7.40926 24.6641 7.14219C23.8138 6.8208 22.915 6.64695 22.0063 6.62812C20.8469 6.5625 20.475 6.5625 17.5 6.5625C14.525 6.5625 14.1531 6.5625 12.9938 6.62812C12.085 6.64695 11.1862 6.8208 10.3359 7.14219C9.60496 7.41196 8.94352 7.84171 8.4 8.4C7.83937 8.9416 7.40926 9.60361 7.14219 10.3359C6.8208 11.1862 6.64695 12.085 6.62812 12.9938C6.5625 14.1531 6.5625 14.525 6.5625 17.5C6.5625 20.475 6.5625 20.8469 6.62812 22.0063C6.64695 22.915 6.8208 23.8138 7.14219 24.6641C7.40926 25.3964 7.83937 26.0584 8.4 26.6C8.94352 27.1583 9.60496 27.588 10.3359 27.8578C11.1862 28.1792 12.085 28.3531 12.9938 28.3719C14.1531 28.4375 14.525 28.4375 17.5 28.4375C20.475 28.4375 20.8469 28.4375 22.0063 28.3719C22.915 28.3531 23.8138 28.1792 24.6641 27.8578C25.3964 27.5907 26.0584 27.1606 26.6 26.6C27.1603 26.0559 27.5935 25.3949 27.8687 24.6641C28.1806 23.8116 28.3506 22.9137 28.3719 22.0063C28.3719 20.8469 28.4375 20.475 28.4375 17.5C28.4375 14.525 28.4375 14.1531 28.3719 12.9938ZM26.4031 21.875C26.3952 22.5693 26.2694 23.2572 26.0312 23.9094C25.8566 24.3854 25.5761 24.8155 25.2109 25.1672C24.8562 25.5287 24.427 25.8086 23.9531 25.9875C23.3009 26.2257 22.613 26.3514 21.9188 26.3594C20.825 26.4141 20.4203 26.425 17.5437 26.425C14.6672 26.425 14.2625 26.425 13.1687 26.3594C12.4478 26.3729 11.73 26.2619 11.0469 26.0312C10.5938 25.8432 10.1843 25.564 9.84375 25.2109C9.48072 24.8596 9.20373 24.4291 9.03438 23.9531C8.76734 23.2916 8.61924 22.5881 8.59687 21.875C8.59687 20.7812 8.53125 20.3766 8.53125 17.5C8.53125 14.6234 8.53125 14.2188 8.59687 13.125C8.60178 12.4152 8.73135 11.7118 8.97969 11.0469C9.17224 10.5852 9.46779 10.1737 9.84375 9.84375C10.176 9.46768 10.5867 9.16901 11.0469 8.96875C11.7136 8.72817 12.4162 8.60243 13.125 8.59687C14.2188 8.59687 14.6234 8.53125 17.5 8.53125C20.3766 8.53125 20.7812 8.53125 21.875 8.59687C22.5693 8.60484 23.2572 8.73058 23.9094 8.96875C24.4064 9.15321 24.8525 9.45311 25.2109 9.84375C25.5694 10.1797 25.8494 10.5905 26.0312 11.0469C26.2743 11.7129 26.4002 12.416 26.4031 13.125C26.4578 14.2188 26.4688 14.6234 26.4688 17.5C26.4688 20.3766 26.4578 20.7812 26.4031 21.875ZM17.5 11.8891C16.3907 11.8912 15.307 12.2221 14.3857 12.84C13.4644 13.4578 12.747 14.3349 12.324 15.3604C11.901 16.3858 11.7914 17.5136 12.0091 18.6013C12.2269 19.689 12.7621 20.6878 13.5473 21.4714C14.3324 22.255 15.3322 22.7883 16.4203 23.0039C17.5084 23.2195 18.636 23.1078 19.6607 22.6828C20.6853 22.2578 21.561 21.5386 22.177 20.6161C22.7931 19.6937 23.1219 18.6093 23.1219 17.5C23.1233 16.7618 22.9788 16.0307 22.6967 15.3485C22.4145 14.6664 22.0003 14.0468 21.4778 13.5254C20.9554 13.0039 20.3349 12.5909 19.6523 12.3101C18.9696 12.0293 18.2382 11.8862 17.5 11.8891ZM17.5 21.1422C16.7796 21.1422 16.0755 20.9286 15.4765 20.5284C14.8776 20.1282 14.4107 19.5593 14.1351 18.8938C13.8594 18.2283 13.7873 17.496 13.9278 16.7894C14.0683 16.0829 14.4152 15.434 14.9246 14.9246C15.434 14.4152 16.0829 14.0683 16.7894 13.9278C17.496 13.7873 18.2283 13.8594 18.8938 14.1351C19.5593 14.4107 20.1282 14.8776 20.5284 15.4765C20.9286 16.0755 21.1422 16.7796 21.1422 17.5C21.1422 17.9783 21.048 18.4519 20.8649 18.8938C20.6819 19.3357 20.4136 19.7372 20.0754 20.0754C19.7372 20.4136 19.3357 20.6819 18.8938 20.8649C18.4519 21.048 17.9783 21.1422 17.5 21.1422Z" fill="white"/>
</svg>
