<svg width="35" height="35" viewBox="0 0 35 35" fill="none" xmlns="http://www.w3.org/2000/svg">
<rect width="35" height="35" rx="7" fill="#0A63BC"/>
<path d="M9.57031 6.42578C8.95389 6.42578 8.36272 6.67065 7.92684 7.10653C7.49097 7.5424 7.24609 8.13358 7.24609 8.75C7.24609 9.36642 7.49097 9.9576 7.92684 10.3935C8.36272 10.8293 8.95389 11.0742 9.57031 11.0742C10.1867 11.0742 10.7779 10.8293 11.2138 10.3935C11.6497 9.9576 11.8945 9.36642 11.8945 8.75C11.8945 8.13358 11.6497 7.5424 11.2138 7.10653C10.7779 6.67065 10.1867 6.42578 9.57031 6.42578ZM7.38281 12.9883C7.34655 12.9883 7.31178 13.0027 7.28614 13.0283C7.2605 13.054 7.24609 13.0887 7.24609 13.125V27.3438C7.24609 27.4192 7.30734 27.4805 7.38281 27.4805H11.7578C11.7941 27.4805 11.8288 27.4661 11.8545 27.4404C11.8801 27.4148 11.8945 27.38 11.8945 27.3438V13.125C11.8945 13.0887 11.8801 13.054 11.8545 13.0283C11.8288 13.0027 11.7941 12.9883 11.7578 12.9883H7.38281ZM14.4922 12.9883C14.4559 12.9883 14.4212 13.0027 14.3955 13.0283C14.3699 13.054 14.3555 13.0887 14.3555 13.125V27.3438C14.3555 27.4192 14.4167 27.4805 14.4922 27.4805H18.8672C18.9034 27.4805 18.9382 27.4661 18.9639 27.4404C18.9895 27.4148 19.0039 27.38 19.0039 27.3438V19.6875C19.0039 19.1436 19.22 18.622 19.6046 18.2374C19.9892 17.8528 20.5108 17.6367 21.0547 17.6367C21.5986 17.6367 22.1202 17.8528 22.5048 18.2374C22.8894 18.622 23.1055 19.1436 23.1055 19.6875V27.3438C23.1055 27.4192 23.1667 27.4805 23.2422 27.4805H27.6172C27.6534 27.4805 27.6882 27.4661 27.7139 27.4404C27.7395 27.4148 27.7539 27.38 27.7539 27.3438V17.9156C27.7539 15.2611 25.4461 13.1852 22.8047 13.4247C21.9874 13.4991 21.1869 13.7013 20.4323 14.0241L19.0039 14.6366V13.125C19.0039 13.0887 18.9895 13.054 18.9639 13.0283C18.9382 13.0027 18.9034 12.9883 18.8672 12.9883H14.4922Z" fill="white"/>
</svg>
