<svg width="35" height="35" viewBox="0 0 35 35" fill="none" xmlns="http://www.w3.org/2000/svg">
<rect width="35" height="35" rx="7" fill="black"/>
<path d="M22.8666 10.29C22.0691 9.37956 21.6296 8.21034 21.6299 7H18.0249V21.4667C17.9971 22.2495 17.6666 22.9911 17.103 23.5351C16.5394 24.0791 15.7866 24.3832 15.0033 24.3833C13.3466 24.3833 11.9699 23.03 11.9699 21.35C11.9699 19.3433 13.9066 17.8383 15.9016 18.4567V14.77C11.8766 14.2333 8.35327 17.36 8.35327 21.35C8.35327 25.235 11.5733 28 14.9916 28C18.6549 28 21.6299 25.025 21.6299 21.35V14.0117C23.0918 15.0615 24.8469 15.6248 26.6466 15.6217V12.0167C26.6466 12.0167 24.4533 12.1217 22.8666 10.29Z" fill="white"/>
</svg>
