<svg width="35" height="35" viewBox="0 0 35 35" fill="none" xmlns="http://www.w3.org/2000/svg">
<rect width="35" height="35" rx="7" fill="#52ABE8"/>
<path d="M28.9406 10.9375C28.0984 11.3203 27.1906 11.5719 26.2499 11.6922C27.2124 11.1125 27.9562 10.1937 28.3062 9.08906C27.3984 9.63594 26.3921 10.0188 25.3312 10.2375C24.4671 9.29688 23.2531 8.75 21.8749 8.75C19.3046 8.75 17.2046 10.85 17.2046 13.4422C17.2046 13.8141 17.2484 14.175 17.325 14.5141C13.4312 14.3172 9.96401 12.4469 7.6562 9.61406C7.25151 10.3031 7.02183 11.1125 7.02183 11.9656C7.02183 13.5953 7.84214 15.0391 9.11089 15.8594C8.33433 15.8594 7.61245 15.6406 6.97808 15.3125V15.3453C6.97808 17.6203 8.59683 19.5234 10.7406 19.95C10.0523 20.1384 9.32974 20.1646 8.62964 20.0266C8.92671 20.959 9.50851 21.7748 10.2933 22.3595C11.078 22.9441 12.0262 23.2681 13.0046 23.2859C11.3461 24.5989 9.29026 25.3086 7.17495 25.2984C6.80308 25.2984 6.4312 25.2766 6.05933 25.2328C8.13745 26.5672 10.6093 27.3438 13.2562 27.3438C21.8749 27.3438 26.6109 20.1906 26.6109 13.9891C26.6109 13.7812 26.6109 13.5844 26.5999 13.3766C27.5187 12.7203 28.3062 11.8891 28.9406 10.9375Z" fill="white"/>
</svg>
