<svg width="35" height="35" viewBox="0 0 35 35" fill="none" xmlns="http://www.w3.org/2000/svg">
<rect width="35" height="35" rx="7" fill="#FF0000"/>
<path d="M25.1562 17.5C25.1567 17.6857 25.1091 17.8683 25.0181 18.0301C24.927 18.192 24.7956 18.3275 24.6367 18.4235L14.7875 24.4487C14.6214 24.5504 14.4313 24.6059 14.2366 24.6095C14.0419 24.6131 13.8498 24.5647 13.6801 24.4692C13.512 24.3752 13.372 24.2382 13.2744 24.0721C13.1769 23.9061 13.1253 23.7171 13.125 23.5245V11.4755C13.1253 11.2829 13.1769 11.0939 13.2744 10.9278C13.372 10.7618 13.512 10.6247 13.6801 10.5307C13.8498 10.4353 14.0419 10.3868 14.2366 10.3904C14.4313 10.3941 14.6214 10.4496 14.7875 10.5512L24.6367 16.5764C24.7956 16.6725 24.927 16.808 25.0181 16.9698C25.1091 17.1317 25.1567 17.3143 25.1562 17.5Z" fill="white"/>
</svg>
